walker_model_states
version=1
nRows=35
nColumns=15
inDegrees=yes

# SIMM Motion File Header:
name walker_model_states
datacolumns 15
datarows 35
otherdata 1
range 1.37774831 1.43591679
endheader
time	planarjoint_/Pelvis_rot/value	planarjoint_/Pelvis_rot/speed	planarjoint_/Pelvis_tx/value	planarjoint_/Pelvis_tx/speed	planarjoint_/Pelvis_ty/value	planarjoint_/Pelvis_ty/speed	LThighToPelvis/LHip_rz/value	LThighToPelvis/LHip_rz/speed	RThighToPelvis/RHip_rz/value	RThighToPelvis/RHip_rz/speed	LShankToLThigh/LKnee_rz/value	LShankToLThigh/LKnee_rz/speed	RShankToRThigh/RKnee_rz/value	RShankToRThigh/RKnee_rz/speed
      1.37774831	      0.00000000	      0.00000000	      0.04029170	      0.17116440	      0.37045655	     -0.00930469	    104.07826922	     -2.78003606	     50.12963105	      3.23628248	   -113.95049075	    -20.44167585	   -140.37663887	     -1.68094057
      1.37994662	      0.00000000	      0.00000000	      0.04067564	      0.17815203	      0.37043025	     -0.01461729	    104.07264427	     -2.33148540	     50.13505279	      1.69333899	   -113.99670438	    -21.60731637	   -140.37763607	      0.77507659
      1.38214494	      0.00000000	      0.00000000	      0.04107497	      0.18513570	      0.37039235	     -0.01983767	    104.06803435	     -1.86165924	     50.13707642	      0.15138617	   -114.04550614	    -22.79333219	   -140.37323492	      3.22571188
      1.38386324	      0.00000000	      0.00000000	      0.04139770	      0.19047133	      0.37035487	     -0.02374493	    104.06514870	     -1.49967800	     50.13632193	     -1.02179658	   -114.08545352	    -23.69692041	   -140.36606315	      5.11606513
      1.38558154	      0.00000000	      0.00000000	      0.04172940	      0.19555400	      0.37031090	     -0.02737237	    104.06286503	     -1.16461446	     50.13360296	     -2.12794884	   -114.12691782	    -24.55388856	   -140.35568037	      6.95834102
      1.38790641	      0.00000000	      0.00000000	      0.04219138	      0.20169336	      0.37024221	     -0.03155088	    104.06061306	     -0.79171262	     50.12708943	     -3.42772587	   -114.18521616	    -25.56097548	   -140.33672643	      9.31399143
      1.38989718	      0.00000000	      0.00000000	      0.04259728	      0.20589079	      0.37017665	     -0.03413798	    104.05926557	     -0.58152873	     50.11938641	     -4.25886937	   -114.23679162	    -26.21649174	   -140.31633566	     11.13446327
      1.39188796	      0.00000000	      0.00000000	      0.04301024	      0.20872360	      0.37010711	     -0.03549163	    104.05821367	     -0.49772657	     50.11036896	     -4.73494301	   -114.28942157	    -26.60832916	   -140.29256446	     12.69827004
      1.39387873	      0.00000000	      0.00000000	      0.04342721	      0.20988736	      0.37003632	     -0.03536388	    104.05718994	     -0.55469103	     50.10081144	     -4.79496687	   -114.34253568	    -26.70085476	   -140.26599142	     13.93950902
      1.39566851	      0.00000000	      0.00000000	      0.04380262	      0.20936256	      0.36997416	     -0.03387482	    104.05606140	     -0.72443367	     50.09245902	     -4.48208598	   -114.39018699	    -26.50333201	   -140.24027985	     14.74056615
      1.39745828	      0.00000000	      0.00000000	      0.04417574	      0.20735161	      0.36991583	     -0.03109990	    104.05453525	     -0.99672356	     50.08495827	     -3.85085236	   -114.43725973	    -26.05964108	   -140.21341338	     15.23013961
      1.39819541	      0.00000000	      0.00000000	      0.04432815	      0.20611863	      0.36989345	     -0.02961091	    104.05375066	     -1.13431903	     50.08224229	     -3.51218165	   -114.45637913	    -25.80949208	   -140.20214188	     15.34073308
      1.39881816	      0.00000000	      0.00000000	      0.04445614	      0.20491573	      0.36987544	     -0.02820314	    104.05300521	     -1.26152445	     50.08013652	     -3.27588620	   -114.47237921	    -25.57209197	   -140.19261673	     15.15412875
      1.39944091	      0.00000000	      0.00000000	      0.04458335	      0.20358720	      0.36985835	     -0.02665219	    104.05217713	     -1.39976985	     50.07811884	     -3.24337362	   -114.48822456	    -25.31269682	   -140.18342666	     14.21325860
      1.40024052	      0.00000000	      0.00000000	      0.04474540	      0.20170766	      0.36983790	     -0.02445436	    104.05098157	     -1.59362411	     50.07542845	     -3.54536359	   -114.50832130	    -24.94771223	   -140.17298899	     11.63573492
      1.40104013	      0.00000000	      0.00000000	      0.04490587	      0.19962442	      0.36981930	     -0.02203910	    104.04962387	     -1.80510032	     50.07237596	     -4.11569163	   -114.52811146	    -24.54552340	   -140.16519813	      7.65198984
      1.40208771	      0.00000000	      0.00000000	      0.04511341	      0.19654786	      0.36979799	     -0.01858561	    104.04757740	     -2.10622514	     50.06765642	     -4.84896510	   -114.55352357	    -23.95868154	   -140.16049170	      1.21210844
      1.40313529	      0.00000000	      0.00000000	      0.04531751	      0.19303617	      0.36978045	     -0.01485709	    104.04520271	     -2.43109186	     50.06240375	     -5.06018469	   -114.57828415	    -23.30175133	   -140.16263952	     -5.19042865
      1.40418287	      0.00000000	      0.00000000	      0.04551771	      0.18909729	      0.36976694	     -0.01090996	    104.04247701	     -2.77550455	     50.05733407	     -4.48553130	   -114.60232169	    -22.58008109	   -140.17092901	    -10.36999639
      1.40523045	      0.00000000	      0.00000000	      0.04571358	      0.18481667	      0.36975765	     -0.00681566	    104.03938306	     -3.13265273	     50.05326186	     -3.18513943	   -114.62557616	    -21.81053216	   -140.18374757	    -13.80126223
      1.40661109	      0.00000000	      0.00000000	      0.04596469	      0.17891653	      0.36975200	     -0.00137100	    104.03473119	     -3.60406764	     50.05047056	     -0.77216567	   -114.65497057	    -20.77048640	   -140.20444782	    -15.75625605
      1.40799174	      0.00000000	      0.00000000	      0.04620767	      0.17312870	      0.36975377	      0.00386567	    104.02944335	     -4.04945970	     50.05119746	      1.77692361	   -114.68294828	    -19.77063939	   -140.22641416	    -15.95606544
      1.40937238	      0.00000000	      0.00000000	      0.04644298	      0.16784953	      0.36976246	      0.00863356	    104.02357171	     -4.44673853	     50.05514148	      3.85643711	   -114.70961102	    -18.87353051	   -140.24852968	    -16.08339161
      1.41216094	      0.00000000	      0.00000000	      0.04689871	      0.15960047	      0.36979763	      0.01603053	    104.01025758	     -5.05896903	     50.07030136	      6.75020444	   -114.76017892	    -17.50069196	   -140.29362019	    -16.19491175
      1.41448601	      0.00000000	      0.00000000	      0.04726468	      0.15567531	      0.36983938	      0.01945150	    103.99809492	     -5.37540087	     50.08770259	      8.07137125	   -114.80002966	    -16.85279324	   -140.33100362	    -15.88765087
      1.41645423	      0.00000000	      0.00000000	      0.04756963	      0.15451138	      0.36987883	      0.02034045	    103.98735413	     -5.52123304	     50.10415587	      8.56033059	   -114.83295324	    -16.65414556	   -140.36171137	    -15.25750006
      1.41842246	      0.00000000	      0.00000000	      0.04787412	      0.15519088	      0.36991832	      0.01951945	    103.97642832	     -5.56432503	     50.12108613	      8.57063595	   -114.86577468	    -16.74249617	   -140.39083684	    -14.28233335
      1.42039069	      0.00000000	      0.00000000	      0.04818159	      0.15749030	      0.36995469	      0.01720471	    103.96551433	     -5.50974681	     50.13763502	      8.18637446	   -114.89903202	    -17.09246348	   -140.41772494	    -12.99071101
      1.42288737	      0.00000000	      0.00000000	      0.04858041	      0.16230014	      0.36999217	      0.01253995	    103.95198561	     -5.30214519	     50.15700092	      7.25542492	   -114.94258792	    -17.85133819	   -140.44771847	    -10.97385308
      1.42511100	      0.00000000	      0.00000000	      0.04894736	      0.16790909	      0.37001428	      0.00719955	    103.94051871	     -4.99294874	     50.17191740	      6.12218401	   -114.98326760	    -18.77139514	   -140.46986488	     -8.91134703
      1.42733463	      0.00000000	      0.00000000	      0.04932775	      0.17433852	      0.37002367	      0.00115414	    103.92985958	     -4.57788491	     50.18408991	      4.80209393	   -115.02619001	    -19.85652544	   -140.48722967	     -6.68660451
      1.42955826	      0.00000000	      0.00000000	      0.04972304	      0.18124412	      0.37001914	     -0.00526083	    103.92022301	     -4.07734559	     50.19319369	      3.37338663	   -115.07166660	    -21.06378842	   -140.49953660	     -4.37288969
      1.43153549	      0.00000000	      0.00000000	      0.05008764	      0.18757549	      0.37000300	     -0.01107252	    103.91264724	     -3.57898870	     50.19856804	      2.05875063	   -115.11442510	    -22.19307997	   -140.50612112	     -2.28544189
      1.43351271	      0.00000000	      0.00000000	      0.05046483	      0.19395397	      0.36997538	     -0.01685352	    103.90608869	     -3.05218640	     50.20132718	      0.73239473	   -115.15945121	    -23.35412766	   -140.50857433	     -0.19801987
      1.43591679	      0.00000000	      0.00000000	      0.05094033	      0.20158653	      0.36992660	     -0.02366698	    103.89952922	     -2.40774781	     50.20116968	     -0.85340794	   -115.21728687	    -24.75086455	   -140.50603161	      2.30207738
